<svg fill="#e11d29" role="img" viewBox="0 0 24 24" xmlns="http://www.w3.org/2000/svg"><title>Java</title><path d="M8.851 18.56s-.917.534.653.714c.575.085 1.239.134 1.824.134 1.602 0 3.127-.282 4.332-.804 0 0 .418.276.806.515-3.079 1.324-6.968-.076-7.615-0.559zm-.651-2.565s-1.028.762.542.924c.839.085 1.73.136 2.559.136 2.059 0 3.697-.353 4.985-1.03 0 0 .299.304.603.473-3.713 1.086-7.838.121-8.689-0.503zm3.78-4.348c1.006 1.157-.264 2.2-.264 2.2s2.554-1.319 1.381-2.969c-1.095-1.539-1.935-2.305 2.613-4.94 0 0-7.139 1.783-3.73 5.71zm5.636 8.095s.679.56-.747.993c-2.712.822-11.288 1.069-13.669.033-.856-.373.75-.89 1.254-.998.527-.114.828-.093.828-.093-.953-.671-6.156 1.317-2.643 1.887 9.58 1.553 17.462-.7 14.977-1.822zM9.292 13.21s-4.362 1.036-1.544 1.412c1.189.159 3.561.123 5.77-.062 1.806-.152 3.618-.477 3.618-.477s-.637.272-1.098.587c-4.429 1.165-12.986.623-10.522-.569 2.082-1.006 3.776-.891 3.776-.891zm7.816 4.373c4.502-2.34 2.42-4.589.968-4.285-.356.075-.515.14-.515.14s.132-.207.385-.297c2.875-1.011 5.086 2.981-.928 4.562 0 0 .07-.062.09-.12zM14.401 0s2.494 2.494-2.365 6.338c-3.896 3.077-.888 4.832-.001 6.836-2.274-2.053-3.943-3.858-2.824-5.541 1.644-2.469 6.197-3.665 5.19-7.633z"/><path d="M9.734 23.924c4.322.277 10.96-.154 11.12-2.198 0 0-.302.775-3.572 1.391-3.688.694-8.239.613-10.937.168 0 0 .553.457 3.389.64z"/></svg>
